PathFileType  4	(X/Y/Z) W:\OA_GaitRetraining\ACL OpenCap study\PS1\Edited\
DataRate	CameraRate	NumFrames	NumMarkers	Units	OrigDataRate	OrigDataStartFrame	OrigNumFrames
  200.0		  200.0		    4		     46		 mm	  200.0	      129	    147
Frame#	Time	C7			R_Shoulder			L_Shoulder			Sternum			R_humerus			R_elbow_med			R_elbow_lat			R_forearm			R_wrist_radius			R_wrist_ulna			L_humerus			L_elbow_med			L_elbow_lat			L_forearm			L_wrist_radius			L_wrist_ulna			r.ASIS			r.PSIS			L.ASIS			L.PSIS			r_thigh1			r_thigh2			r_thigh3			r_thigh4			r_thigh5			r_knee			r_shank_antsup			r_sh2			r_sh3			r_sh4			r_ankle			r_calc			r_5meta			r_toe			L_thigh1			L_thigh2			L_thigh3			L_thigh4			L_knee			L_shank_antsup			L_sh2			L_sh3			L_ankle			L_calc			L_5meta			L_toe			
		X1	Y1	Z1	X2	Y2	Z2	X3	Y3	Z3	X4	Y4	Z4	X5	Y5	Z5	X6	Y6	Z6	X7	Y7	Z7	X8	Y8	Z8	X9	Y9	Z9	X10	Y10	Z10	X11	Y11	Z11	X12	Y12	Z12	X13	Y13	Z13	X14	Y14	Z14	X15	Y15	Z15	X16	Y16	Z16	X17	Y17	Z17	X18	Y18	Z18	X19	Y19	Z19	X20	Y20	Z20	X21	Y21	Z21	X22	Y22	Z22	X23	Y23	Z23	X24	Y24	Z24	X25	Y25	Z25	X26	Y26	Z26	X27	Y27	Z27	X28	Y28	Z28	X29	Y29	Z29	X30	Y30	Z30	X31	Y31	Z31	X32	Y32	Z32	X33	Y33	Z33	X34	Y34	Z34	X35	Y35	Z35	X36	Y36	Z36	X37	Y37	Z37	X38	Y38	Z38	X39	Y39	Z39	X40	Y40	Z40	X41	Y41	Z41	X42	Y42	Z42	X43	Y43	Z43	X44	Y44	Z44	X45	Y45	Z45	X46	Y46	Z46	

129	0.64000	360.838	1293.781	-1145.722	523.282	1268.408	-1113.062	345.757	1245.359	-1276.870	461.046	1188.753	-1213.157	511.843	1281.905	-877.081	406.938	1255.067	-810.799	471.600	1282.051	-795.044	481.777	1231.998	-650.166	444.971	1233.349	-571.389	471.009	1189.148	-578.512	364.600	1135.761	-1379.547	425.099	962.609	-1398.594	421.122	1010.884	-1458.702	489.007	1072.728	-1442.989	597.064	1133.657	-1377.645	611.834	1119.793	-1426.128	492.821	811.746	-1010.653	323.639	909.212	-913.510	274.062	836.072	-1150.844	266.388	919.523	-946.737	553.221	768.658	-990.567	621.840	716.931	-1079.060	647.469	669.500	-1057.749	548.443	670.850	-938.386	608.931	624.546	-1025.388	697.460	565.435	-1163.400	718.745	470.148	-1215.680	693.297	366.555	-1270.596	661.553	456.246	-1167.986	630.318	354.096	-1213.639	627.725	213.275	-1299.993	544.865	177.703	-1329.164	726.413	183.907	-1345.073	730.137	245.403	-1392.653	162.164	693.750	-1172.205	104.435	568.679	-1165.689	96.601	737.245	-1082.582	41.295	608.577	-1080.617	-17.445	476.280	-1105.830	-113.564	339.790	-1109.244	-141.256	389.541	-1039.649	-196.088	288.139	-1001.403	-261.618	196.684	-1015.034	-257.353	210.144	-936.319	-322.880	81.851	-1041.141	-253.996	62.808	-1064.876
130	0.64500	373.081	1297.051	-1150.844	535.232	1272.210	-1117.372	359.495	1250.444	-1283.176	474.325	1192.920	-1217.863	519.474	1285.585	-881.383	412.914	1259.095	-817.443	477.020	1285.571	-799.900	484.157	1234.631	-655.250	445.461	1236.212	-577.245	471.444	1191.531	-584.047	377.549	1139.888	-1386.117	436.245	966.572	-1405.157	433.104	1015.108	-1465.110	502.101	1075.503	-1449.311	611.650	1134.195	-1384.187	626.022	1120.029	-1432.702	502.608	813.539	-1018.661	333.821	912.512	-922.646	285.632	840.168	-1160.009	276.652	923.142	-956.152	563.140	769.431	-999.017	632.011	716.174	-1086.479	657.128	668.658	-1064.338	557.470	672.370	-945.720	617.784	624.188	-1032.406	706.550	562.594	-1169.147	729.221	467.495	-1221.594	705.877	364.301	-1277.855	671.629	452.519	-1174.734	642.279	350.379	-1222.053	642.821	210.469	-1309.670	561.313	174.036	-1340.210	742.572	182.844	-1353.340	746.497	245.037	-1399.995	172.653	695.665	-1180.985	114.858	570.843	-1171.496	106.887	741.546	-1092.728	51.035	613.253	-1087.799	-8.342	480.709	-1109.955	-104.791	344.411	-1113.635	-133.105	394.045	-1044.094	-188.388	292.364	-1006.823	-253.203	201.803	-1021.825	-248.312	217.656	-944.065	-317.051	88.536	-1045.679	-248.362	65.695	-1068.157
131	0.65000	385.386	1300.790	-1155.297	546.945	1275.370	-1121.232	373.161	1254.866	-1288.972	487.583	1196.770	-1222.649	527.020	1288.586	-885.922	419.035	1262.566	-824.308	482.413	1288.724	-805.002	486.693	1237.104	-660.472	446.519	1238.372	-583.275	471.900	1193.637	-589.783	390.330	1143.828	-1392.844	447.315	970.154	-1411.747	444.844	1018.762	-1471.061	515.088	1077.814	-1455.264	626.556	1134.248	-1390.978	639.506	1119.961	-1439.606	512.428	815.214	-1026.719	343.847	915.876	-931.511	297.295	844.000	-1169.063	286.466	925.970	-965.423	572.985	769.980	-1007.693	642.042	714.731	-1093.953	666.474	667.677	-1071.441	566.583	673.692	-952.994	626.940	623.917	-1038.858	715.482	559.391	-1174.859	739.538	464.719	-1227.381	718.262	361.669	-1284.943	681.535	448.435	-1181.358	654.206	346.565	-1229.774	657.697	207.426	-1319.019	577.109	170.184	-1351.261	758.025	180.781	-1361.277	762.279	244.103	-1407.632	183.357	697.200	-1189.852	125.591	572.897	-1177.631	117.152	745.428	-1103.193	61.066	617.288	-1095.754	1.000	484.843	-1114.634	-95.663	348.715	-1118.224	-124.630	398.345	-1048.962	-180.309	296.740	-1012.279	-244.539	206.702	-1028.074	-239.012	223.993	-950.526	-310.425	95.523	-1051.147	-242.034	69.117	-1071.653
132	0.65500	398.809	1304.508	-1162.471	558.424	1277.878	-1124.482	386.657	1258.649	-1294.331	500.722	1200.243	-1227.452	534.592	1291.746	-890.487	425.302	1265.723	-831.266	488.368	1291.433	-810.036	489.202	1238.945	-665.775	447.287	1240.370	-589.569	472.606	1195.340	-595.747	403.012	1147.514	-1399.528	458.117	973.462	-1418.274	456.556	1022.062	-1477.522	527.856	1079.738	-1461.795	640.271	1133.949	-1398.021	653.915	1119.079	-1446.433	522.342	816.842	-1034.820	354.162	918.726	-940.608	308.841	847.587	-1178.023	297.425	929.649	-974.847	582.804	770.298	-1016.631	651.731	713.580	-1101.697	675.848	666.361	-1078.407	576.070	674.900	-959.941	636.074	623.559	-1045.287	724.214	555.924	-1180.547	749.672	461.524	-1233.097	730.396	358.752	-1291.915	691.582	444.065	-1187.430	665.814	342.246	-1237.935	672.201	204.017	-1328.162	592.624	166.065	-1361.944	773.860	179.679	-1368.942	777.726	242.703	-1415.132	194.388	698.511	-1198.705	136.329	574.583	-1183.941	127.453	748.897	-1113.895	71.018	621.185	-1103.669	10.491	488.683	-1119.895	-86.425	352.770	-1123.164	-115.715	402.555	-1054.068	-171.979	301.115	-1017.799	-235.810	211.411	-1034.009	-229.842	229.840	-956.583	-303.066	102.171	-1056.702	-235.133	72.309	-1074.953
